<svg xmlns="http://www.w3.org/2000/svg" width="185.659" height="28.368" viewBox="0 0 185.659 28.368">
  <path id="Path_11" data-name="Path 11" d="M327.288,19.588l8.373,8.449h-8.035l-6.759-7.42H310.6V15.5h11.631c3.056,0,4.605-1.636,4.605-4.862,0-3.08-1.549-4.642-4.605-4.642H308.181v22.04h-5.63V.33h19.676c6.291,0,10.2,3.922,10.2,10.235,0,4.215-1.861,7.46-5.137,9.023M342.012,6h19.212V.33H336.382V28.037h24.878V22.37H342.012Zm18.22,5.5H344.426v4.932h15.805ZM383.534.33H364.262V28.037h5.63V6h13.642c2.952,0,4.715,1.694,4.715,4.532,0,2.818-1.807,4.568-4.715,4.568H372.307v5.52h11.228c6.24,0,10.272-4.017,10.272-10.235,0-6.2-3.936-10.051-10.272-10.051m43.5,0H418.19L403.912,11.307a2.91,2.91,0,0,0-1.37,2.528,2.659,2.659,0,0,0,1.146,2.341L418.639,27.93l.136.107h8.791L408.872,13.874ZM396.11,28.037h5.667V.33H396.11Zm60.767-14.129c0,8.055-5.837,14.129-13.578,14.129h-6.5c-7.678,0-13.468-6.074-13.468-14.129C423.329,5.913,428.868.33,436.8.33h6.5c7.994,0,13.578,5.584,13.578,13.578m-5.667.22C451.21,9.34,447.957,6,443.3,6h-6.5c-4.52,0-7.8,3.42-7.8,8.132,0,4.776,3.281,8.242,7.8,8.242h6.5c4.584,0,7.911-3.466,7.911-8.242M482.764.109V18.95L464.774,1.1A3.138,3.138,0,0,0,462.437,0c-1.755,0-2.889,1.292-2.889,3.293V28.037h5.447V9.208L482.91,27.229a3.433,3.433,0,0,0,2.485,1.138c1.684,0,2.815-1.323,2.815-3.293V.109Z" transform="translate(-302.551 0.001)" fill="#1f1f1f"/>
</svg>
